<svg height="113.925247" viewBox="0 0 363.73831177 113.92524719" width="363.738312" xmlns="http://www.w3.org/2000/svg" xmlns:xlink="http://www.w3.org/1999/xlink"><clipPath id="a"><path d="m1364 3379.94c125.37-11.74 250.69-23.44 375.87-26.45 124.98-3.57 250.03-.03 371.69 19.22 121.31 19.63 239.68 53.76 344.35 111.59 105.48 56.63 193.93 137.04 265.7 232.41 36.35 47.3 68.81 98.35 99.19 151.21 30.55 52.73 58.86 107.47 86.74 163.28 55.87 111.36 110.74 226.59 178.8 338.77 16.89 28.2 36.37 58.02 59.92 86.41 23.76 28.36 51.4 56.69 88.17 79.76 36.37 22.74 83.21 40.03 131.08 39.76 11.81-.07 23.73-.2 35.03-2.09l17.14-2.47 15.87-3.66c21.11-5.34 42.48-12.93 62.57-23.77 40.72-20.96 74.83-53.46 99.39-87.72 24.7-34.49 41.25-70.53 53.86-105.52 24.85-70.1 35.12-137.58 44.9-200.49l7.11-45.86 3.7-21.83 4.15-22.93c5.48-30.59 11.25-61.09 17.15-91.56 11.83-60.93 24.38-121.66 37.89-182.08 26.97-120.86 56.8-240.8 91.35-359.02 8.61-29.56 17.59-58.98 26.69-88.35 9.4-29.17 18.63-59.3 28.13-85.35 18.88-52.92 41.54-95.14 67.07-117.28 5.39-4.55 15.78-12.7 23.78-17.64 8.23-5.06 16.1-9.44 22.11-11.44 6.07-2.18 10.32-2.79 12.58-2.76 2.34.06 2.91.31 4.75 1.02 1.75.74 5.02 2.42 9.69 6.24 4.63 3.76 10.4 9.54 16.34 16.9 12.05 14.65 24.42 35.61 35.51 58.5 22.38 46.4 40.08 101.26 55.26 157.46 15.07 56.49 27.31 115.16 37.79 174.74 5.26 29.81 10.05 59.85 14.6 90.24 4.69 30.71 8.52 60.3 14.07 94.85 5.72 33.09 12.21 74.13 34.05 121.03 5.34 11.58 12.25 23.55 19.9 35.19 7.8 11.53 17.4 23.61 26.57 33.15 18.66 19.89 39.49 36.01 62.31 49.47 22.82 13.38 47.8 23.92 75.37 30.34 27.46 6.4 57.54 8.78 88.4 4.55 15.15-2.08 31.36-5.96 46.64-11.47 15.34-5.56 29.85-12.75 42.97-20.93 26.35-16.48 46.74-36.36 62.78-55.71 31.86-39.06 49.3-76.61 63.84-110.03 13.78-32.68 25.63-64.38 36.45-95.88 21.62-62.86 39.35-123.13 58.83-178.83 4.84-13.99 9.84-27.57 14.94-41.01 4.77-12.08 9.4-23.47 14.52-33.61 5.04-10.13 10.23-19.6 15.37-26.87 2.52-4.11 5.06-6.78 7.38-10.07l3.37-3.68c1.08-1.42 2.1-2.31 3.01-3.01 3.87-3.95 6-4.66 6.46-4.94.49-.58-.56.11.44-.13 3.8.43 8.07.09 19.07 7.34 10.8 7.42 25.04 21.78 38.32 40.02 13.41 18.25 26.26 40.14 37.8 63.56 11.56 23.45 21.98 48.62 30.8 73.97l29.22 88c20.15 60.06 40.31 120.12 61.29 179.89 83.98 239.07 173.24 476.28 269.24 710.72 24.14 58.55 48.43 117.03 73.25 175.29l18.64 43.79c6.69 15.47 13.59 30.99 20.95 46.58 14.78 31.17 31.15 62.54 50.34 93.73 19.14 31.16 41.26 62.3 68.93 92.01 27.5 29.59 60.91 58.05 101.91 79.59 40.72 21.8 89 34.64 136.16 36.1 47.07 1.88 96.45-9.25 138.32-29.02 41.9-20.01 76.65-47.25 104.86-76.14 28.51-28.96 51.34-59.73 71.08-90.76 39.27-62.25 67.13-125.8 90.18-189.43l123.89-357.54 122.62-356.88 61.09-178.52c20.73-59.93 39.52-118.5 61.93-172.65 22.25-54.25 48.37-104.23 81.57-145.19 16.6-20.44 34.77-38.69 55.09-54.01 10.58-7.07 20.39-15.44 31.94-21.17l16.74-9.6 17.83-7.87c47.65-21.23 102.69-30.07 159.37-31.1 56.82-1.18 115.49 6.25 173.9 18.54 14.61 3.07 29.24 6.2 43.82 10.04 14.62 3.46 29.17 7.53 43.73 11.69 29.02 8.2 58.06 17.76 87.81 27.66 59.27 19.77 119.21 40.87 180.97 58.99 61.62 18.31 125.42 33.56 191 41.67 16.27 2.48 33 3.11 49.47 4.53 16.59.84 33.3 1.04 49.95.83 16.72-1.13 33.38-.93 50.03-3.48l24.91-3.05c8.26-1.3 16.47-3.15 24.69-4.72 66.32-12.86 125.78-39.62 183.47-63.19 57.64-23.79 114.95-45.7 174.59-51.33 59.51-5.62 122.76 4.89 186.36 6.29 31.8.64 64.46-.62 95.53-9.96 30.98-9.12 59.1-28.6 75.75-55.52-19.45 25.13-48.18 40.56-78.13 46.19-30.06 6.06-61.18 4.56-91.93 1.13-61.78-6.8-122.81-23.3-189.39-23.35-66.55.79-130.02 20.21-190.02 39.58-60.18 19.44-118.48 39.95-176.81 46.39-58.46 7.31-117.86 3.5-176.52-7.97-58.71-11.36-116.7-29.27-174.32-50.74-57.63-21.45-115.2-45.28-173.91-69.05l-44.46-17.63c-15.25-5.65-30.3-11.75-45.8-16.93-15.39-5.43-30.83-10.78-46.57-15.55-15.57-5.11-31.45-9.56-47.39-13.92-63.69-17.47-130.1-29.59-199.13-32.12-68.71-2.45-141.01 4.28-210.32 30.27l-25.85 9.91-25 12.33c-17.02 7.67-32.23 18.67-48.08 28.58-30.92 21.12-58.69 46.49-83 73.71-48.76 54.75-83.63 116.42-112.02 177.05-28.46 60.91-51.14 121.21-73.72 179.32l-68.16 175.94-135.89 352.05-134.77 351.33c-21.43 53.88-46.03 105.48-75.25 148.85-28.81 43.38-63.47 77.15-93.84 89.81-29.11 12.62-60.93 10.12-88.84-5.79-28.9-16.21-60.98-51.67-87.22-97.35-13.33-22.63-25.74-47.27-37.42-73.14-5.82-12.95-11.46-26.27-17.01-39.77l-17.51-43.33c-23.41-57.88-46.3-115.98-69.04-174.13-90.61-232.72-177.05-467.05-256.86-703.63-20.14-59.08-40-118.25-59.58-177.51l-29.91-91.14c-11.74-34.06-25.25-67.18-41.35-100.22-16.17-32.99-34.8-65.83-58.45-98.41-23.81-32.39-52.4-65.25-93.16-94.1-10.89-6.94-21.6-13.84-33.33-20.04-6.2-2.96-12.47-5.82-18.77-8.58-6.32-2.75-12.47-5.55-19.6-7.5-13.84-4.01-27.81-8.58-41.92-10.11-7.07-1.01-14.1-1.95-21.24-2.66-7.54-.27-15.12-.37-22.68-.3-7.48-.14-15.22.57-23.07 1.68-7.77 1.12-15.57 1.94-23.21 3.86-7.66 1.95-15.29 4.1-22.84 6.43-7.58 2.28-14.49 5.62-21.67 8.65-28.12 12.67-52.3 30.08-70.82 48.2-4.94 4.55-9.55 9.14-13.55 13.74-4.13 4.6-8.42 9.29-12.28 13.95-7.19 9.22-14.68 18.69-20.56 27.9-12.7 18.64-22.53 36.9-31.4 54.94-8.9 18.01-16.08 35.8-22.75 52.99-5.99 15.98-11.79 31.93-17.18 47.67-21.73 63.14-39.27 123.65-58.43 179.78-9.47 28.01-21.51 54.55-30.19 80.55-20.06 60.05-47.16 57.48-51.48 55.01-4.28-2.42-8.68-5.6-11.53-8.68-1.78-1.74-1.89-2.08-3.05-3.47-.91-1.53-2.13-3.06-3.35-5.78-5.32-10.08-11.04-31.53-15.83-60.25-4.76-27.48-9.47-60.2-14.59-91.6-5.11-31.75-10.57-63.74-16.59-95.8-12.03-64.15-26.1-128.58-44.16-193.43-18.26-64.92-40.21-130.08-73.47-196.59-17.06-33.23-36.67-66.96-65.04-100.59-14.21-16.74-30.65-33.47-50.86-48.98-20.13-15.45-44.45-29.71-72.44-39.18-27.86-9.58-59.01-13.63-88.04-11.66-29.14 1.85-55.74 9.01-78.93 18.22-23.41 9.24-42.89 20.74-61.1 32.61-18.28 12.31-32.73 23.57-50.86 39.88-16.61 15.73-31.31 32.62-44.2 49.97-12.8 17.37-23.52 35.1-33.08 52.73-18.85 35.27-31.99 70.04-43.06 103.03-11.13 33.37-19.47 63.64-28.58 94.55-8.73 30.93-17.33 61.89-25.51 92.93-32.71 124.16-60.98 249.09-84.85 374.56-11.91 62.74-22.77 125.6-32.87 188.51-5.04 31.45-9.93 62.92-14.52 94.4l-3.49 23.62-3.37 24.79-5.8 47.58c-7.31 61.48-15.24 119.23-30.53 168.57-7.65 24.47-17.21 46.31-28.46 63.51-11.4 17.14-23.7 29.62-38.63 38.27-14.13 8.98-35.59 14.59-50.01 15.25-15.35 1.13-30.18-3.4-47.55-12.62-17.15-9.54-35.34-25.5-52.77-44.44-8.71-9.56-17.26-19.98-25.62-31.05-8.41-11.24-16.44-22.32-24.83-35.29-67.54-99.88-125.8-209.76-188.73-320-31.33-55.13-63.83-110.56-99.3-164.88-35.36-54.27-73.09-107.99-116.63-157.88-85.46-100.46-192.76-187.3-313.47-241.77-120.21-55.94-249.55-84.07-377.57-94.25-128.32-10.18-255.94-4.06-381.73 9.63-125.77 14.83-249.99 36.35-373.4 61.41z"/></clipPath><linearGradient id="b" gradientTransform="matrix(-6375.27 -1144.69 -1144.69 6375.27 9034.7 4568.88)" gradientUnits="userSpaceOnUse" spreadMethod="pad" x1="0" x2="1" y1="0" y2="0"><stop offset="0" stop-color="#ff694f"/><stop offset=".00837989" stop-color="#ff694f"/><stop offset=".318436" stop-color="#ff694f"/><stop offset=".673184" stop-color="#ff268e"/><stop offset="1" stop-color="#3e4ff9"/></linearGradient><path d="m0 0h363.738312v113.925247h-363.738312z" fill="none" pointer-events="none"/><g clip-path="url(#a)" transform="matrix(.05 0 0 -.05 -68.130833 257.719613)"><path d="m1364 3379.94c125.37-11.74 250.69-23.44 375.87-26.45 124.98-3.57 250.03-.03 371.69 19.22 121.31 19.63 239.68 53.76 344.35 111.59 105.48 56.63 193.93 137.04 265.7 232.41 36.35 47.3 68.81 98.35 99.19 151.21 30.55 52.73 58.86 107.47 86.74 163.28 55.87 111.36 110.74 226.59 178.8 338.77 16.89 28.2 36.37 58.02 59.92 86.41 23.76 28.36 51.4 56.69 88.17 79.76 36.37 22.74 83.21 40.03 131.08 39.76 11.81-.07 23.73-.2 35.03-2.09l17.14-2.47 15.87-3.66c21.11-5.34 42.48-12.93 62.57-23.77 40.72-20.96 74.83-53.46 99.39-87.72 24.7-34.49 41.25-70.53 53.86-105.52 24.85-70.1 35.12-137.58 44.9-200.49l7.11-45.86 3.7-21.83 4.15-22.93c5.48-30.59 11.25-61.09 17.15-91.56 11.83-60.93 24.38-121.66 37.89-182.08 26.97-120.86 56.8-240.8 91.35-359.02 8.61-29.56 17.59-58.98 26.69-88.35 9.4-29.17 18.63-59.3 28.13-85.35 18.88-52.92 41.54-95.14 67.07-117.28 5.39-4.55 15.78-12.7 23.78-17.64 8.23-5.06 16.1-9.44 22.11-11.44 6.07-2.18 10.32-2.79 12.58-2.76 2.34.06 2.91.31 4.75 1.02 1.75.74 5.02 2.42 9.69 6.24 4.63 3.76 10.4 9.54 16.34 16.9 12.05 14.65 24.42 35.61 35.51 58.5 22.38 46.4 40.08 101.26 55.26 157.46 15.07 56.49 27.31 115.16 37.79 174.74 5.26 29.81 10.05 59.85 14.6 90.24 4.69 30.71 8.52 60.3 14.07 94.85 5.72 33.09 12.21 74.13 34.05 121.03 5.34 11.58 12.25 23.55 19.9 35.19 7.8 11.53 17.4 23.61 26.57 33.15 18.66 19.89 39.49 36.01 62.31 49.47 22.82 13.38 47.8 23.92 75.37 30.34 27.46 6.4 57.54 8.78 88.4 4.55 15.15-2.08 31.36-5.96 46.64-11.47 15.34-5.56 29.85-12.75 42.97-20.93 26.35-16.48 46.74-36.36 62.78-55.71 31.86-39.06 49.3-76.61 63.84-110.03 13.78-32.68 25.63-64.38 36.45-95.88 21.62-62.86 39.35-123.13 58.83-178.83 4.84-13.99 9.84-27.57 14.94-41.01 4.77-12.08 9.4-23.47 14.52-33.61 5.04-10.13 10.23-19.6 15.37-26.87 2.52-4.11 5.06-6.78 7.38-10.07l3.37-3.68c1.08-1.42 2.1-2.31 3.01-3.01 3.87-3.95 6-4.66 6.46-4.94.49-.58-.56.11.44-.13 3.8.43 8.07.09 19.07 7.34 10.8 7.42 25.04 21.78 38.32 40.02 13.41 18.25 26.26 40.14 37.8 63.56 11.56 23.45 21.98 48.62 30.8 73.97l29.22 88c20.15 60.06 40.31 120.12 61.29 179.89 83.98 239.07 173.24 476.28 269.24 710.72 24.14 58.55 48.43 117.03 73.25 175.29l18.64 43.79c6.69 15.47 13.59 30.99 20.95 46.58 14.78 31.17 31.15 62.54 50.34 93.73 19.14 31.16 41.26 62.3 68.93 92.01 27.5 29.59 60.91 58.05 101.91 79.59 40.72 21.8 89 34.64 136.16 36.1 47.07 1.88 96.45-9.25 138.32-29.02 41.9-20.01 76.65-47.25 104.86-76.14 28.51-28.96 51.34-59.73 71.08-90.76 39.27-62.25 67.13-125.8 90.18-189.43l123.89-357.54 122.62-356.88 61.09-178.52c20.73-59.93 39.52-118.5 61.93-172.65 22.25-54.25 48.37-104.23 81.57-145.19 16.6-20.44 34.77-38.69 55.09-54.01 10.58-7.07 20.39-15.44 31.94-21.17l16.74-9.6 17.83-7.87c47.65-21.23 102.69-30.07 159.37-31.1 56.82-1.18 115.49 6.25 173.9 18.54 14.61 3.07 29.24 6.2 43.82 10.04 14.62 3.46 29.17 7.53 43.73 11.69 29.02 8.2 58.06 17.76 87.81 27.66 59.27 19.77 119.21 40.87 180.97 58.99 61.62 18.31 125.42 33.56 191 41.67 16.27 2.48 33 3.11 49.47 4.53 16.59.84 33.3 1.04 49.95.83 16.72-1.13 33.38-.93 50.03-3.48l24.91-3.05c8.26-1.3 16.47-3.15 24.69-4.72 66.32-12.86 125.78-39.62 183.47-63.19 57.64-23.79 114.95-45.7 174.59-51.33 59.51-5.62 122.76 4.89 186.36 6.29 31.8.64 64.46-.62 95.53-9.96 30.98-9.12 59.1-28.6 75.75-55.52-19.45 25.13-48.18 40.56-78.13 46.19-30.06 6.06-61.18 4.56-91.93 1.13-61.78-6.8-122.81-23.3-189.39-23.35-66.55.79-130.02 20.21-190.02 39.58-60.18 19.44-118.48 39.95-176.81 46.39-58.46 7.31-117.86 3.5-176.52-7.97-58.71-11.36-116.7-29.27-174.32-50.74-57.63-21.45-115.2-45.28-173.91-69.05l-44.46-17.63c-15.25-5.65-30.3-11.75-45.8-16.93-15.39-5.43-30.83-10.78-46.57-15.55-15.57-5.11-31.45-9.56-47.39-13.92-63.69-17.47-130.1-29.59-199.13-32.12-68.71-2.45-141.01 4.28-210.32 30.27l-25.85 9.91-25 12.33c-17.02 7.67-32.23 18.67-48.08 28.58-30.92 21.12-58.69 46.49-83 73.71-48.76 54.75-83.63 116.42-112.02 177.05-28.46 60.91-51.14 121.21-73.72 179.32l-68.16 175.94-135.89 352.05-134.77 351.33c-21.43 53.88-46.03 105.48-75.25 148.85-28.81 43.38-63.47 77.15-93.84 89.81-29.11 12.62-60.93 10.12-88.84-5.79-28.9-16.21-60.98-51.67-87.22-97.35-13.33-22.63-25.74-47.27-37.42-73.14-5.82-12.95-11.46-26.27-17.01-39.77l-17.51-43.33c-23.41-57.88-46.3-115.98-69.04-174.13-90.61-232.72-177.05-467.05-256.86-703.63-20.14-59.08-40-118.25-59.58-177.51l-29.91-91.14c-11.74-34.06-25.25-67.18-41.35-100.22-16.17-32.99-34.8-65.83-58.45-98.41-23.81-32.39-52.4-65.25-93.16-94.1-10.89-6.94-21.6-13.84-33.33-20.04-6.2-2.96-12.47-5.82-18.77-8.58-6.32-2.75-12.47-5.55-19.6-7.5-13.84-4.01-27.81-8.58-41.92-10.11-7.07-1.01-14.1-1.95-21.24-2.66-7.54-.27-15.12-.37-22.68-.3-7.48-.14-15.22.57-23.07 1.68-7.77 1.12-15.57 1.94-23.21 3.86-7.66 1.95-15.29 4.1-22.84 6.43-7.58 2.28-14.49 5.62-21.67 8.65-28.12 12.67-52.3 30.08-70.82 48.2-4.94 4.55-9.55 9.14-13.55 13.74-4.13 4.6-8.42 9.29-12.28 13.95-7.19 9.22-14.68 18.69-20.56 27.9-12.7 18.64-22.53 36.9-31.4 54.94-8.9 18.01-16.08 35.8-22.75 52.99-5.99 15.98-11.79 31.93-17.18 47.67-21.73 63.14-39.27 123.65-58.43 179.78-9.47 28.01-21.51 54.55-30.19 80.55-20.06 60.05-47.16 57.48-51.48 55.01-4.28-2.42-8.68-5.6-11.53-8.68-1.78-1.74-1.89-2.08-3.05-3.47-.91-1.53-2.13-3.06-3.35-5.78-5.32-10.08-11.04-31.53-15.83-60.25-4.76-27.48-9.47-60.2-14.59-91.6-5.11-31.75-10.57-63.74-16.59-95.8-12.03-64.15-26.1-128.58-44.16-193.43-18.26-64.92-40.21-130.08-73.47-196.59-17.06-33.23-36.67-66.96-65.04-100.59-14.21-16.74-30.65-33.47-50.86-48.98-20.13-15.45-44.45-29.71-72.44-39.18-27.86-9.58-59.01-13.63-88.04-11.66-29.14 1.85-55.74 9.01-78.93 18.22-23.41 9.24-42.89 20.74-61.1 32.61-18.28 12.31-32.73 23.57-50.86 39.88-16.61 15.73-31.31 32.62-44.2 49.97-12.8 17.37-23.52 35.1-33.08 52.73-18.85 35.27-31.99 70.04-43.06 103.03-11.13 33.37-19.47 63.64-28.58 94.55-8.73 30.93-17.33 61.89-25.51 92.93-32.71 124.16-60.98 249.09-84.85 374.56-11.91 62.74-22.77 125.6-32.87 188.51-5.04 31.45-9.93 62.92-14.52 94.4l-3.49 23.62-3.37 24.79-5.8 47.58c-7.31 61.48-15.24 119.23-30.53 168.57-7.65 24.47-17.21 46.31-28.46 63.51-11.4 17.14-23.7 29.62-38.63 38.27-14.13 8.98-35.59 14.59-50.01 15.25-15.35 1.13-30.18-3.4-47.55-12.62-17.15-9.54-35.34-25.5-52.77-44.44-8.71-9.56-17.26-19.98-25.62-31.05-8.41-11.24-16.44-22.32-24.83-35.29-67.54-99.88-125.8-209.76-188.73-320-31.33-55.13-63.83-110.56-99.3-164.88-35.36-54.27-73.09-107.99-116.63-157.88-85.46-100.46-192.76-187.3-313.47-241.77-120.21-55.94-249.55-84.07-377.57-94.25-128.32-10.18-255.94-4.06-381.73 9.63-125.77 14.83-249.99 36.35-373.4 61.41" fill="url(#b)"/></g></svg>